<svg id="Layer_1" xmlns="http://www.w3.org/2000/svg" viewBox="0 0 300 300">
  <style>
    .st0{fill:#fff}
  </style>
  <circle cx="153" cy="150.23" r="135.04"/>
  <path class="st0" d="M185.18 230.32h-64.36c-25.23 0-45.76-20.53-45.76-45.76v-68.67c0-25.23 20.53-45.76 45.76-45.76h64.36c25.23 0 45.76 20.53 45.76 45.76v68.67c0 25.23-20.53 45.76-45.76 45.76zM120.82 81.86c-18.76 0-34.03 15.26-34.03 34.03v68.67c0 18.76 15.26 34.03 34.03 34.03h64.36c18.76 0 34.03-15.26 34.03-34.03v-68.67c0-18.76-15.26-34.03-34.03-34.03h-64.36z"/>
  <path class="st0" d="M153 192.56c-23.47 0-42.56-19.09-42.56-42.56 0-11.57 4.76-22.83 13.05-30.88 8.08-7.85 18.64-12 29.72-11.67 13.25.39 24.25 4.85 31.8 12.92 7.16 7.64 10.81 17.95 10.55 29.8-.25 11.34-4.72 21.97-12.6 29.91-7.99 8.05-18.63 12.48-29.96 12.48zm-.98-70.79c-6.89 0-13.45 2.7-18.54 7.64-5.53 5.37-8.7 12.88-8.7 20.59 0 15.56 12.66 28.22 28.22 28.22 15.48 0 27.87-12.46 28.22-28.37.18-8.02-2.13-14.83-6.68-19.68-4.88-5.21-12.41-8.11-21.75-8.39-.26-.01-.52-.01-.77-.01z"/>
  <circle class="st0" cx="196.59" cy="106.24" r="9.93"/>
</svg>