<svg xmlns="http://www.w3.org/2000/svg" viewBox="0 0 300 300">
  <circle cx="151.56" cy="148.96" r="135.04" fill="#fff"/>
  <path d="M240.34 95.5a70.794 70.794 0 0 1-20.32 5.57c7.3-4.38 12.92-11.31 15.56-19.58-6.84 4.06-14.41 7-22.47 8.59a35.316 35.316 0 0 0-25.83-11.17c-19.54 0-35.39 15.84-35.39 35.38 0 2.77.31 5.47.92 8.06-29.41-1.48-55.48-15.56-72.93-36.97a35.175 35.175 0 0 0-4.79 17.79c0 12.28 6.25 23.11 15.74 29.45-5.8-.18-11.26-1.78-16.03-4.43v.45c0 17.14 12.2 31.45 28.38 34.7-2.97.81-6.1 1.24-9.32 1.24-2.28 0-4.5-.22-6.66-.63 4.5 14.06 17.57 24.29 33.06 24.57-12.11 9.49-27.37 15.15-43.95 15.15-2.86 0-5.67-.17-8.44-.5 15.66 10.04 34.26 15.9 54.24 15.9 65.09 0 100.68-53.92 100.68-100.68 0-1.53-.03-3.06-.1-4.58a72.13 72.13 0 0 0 17.65-18.31z"/>
</svg>