<svg xmlns="http://www.w3.org/2000/svg" viewBox="0 0 300 300">
  <circle cx="150.31" cy="148.96" r="135.04"/>
  <path d="M238.42 105.82c-2.05-7.71-8.08-13.79-15.75-15.85-13.89-3.75-69.58-3.75-69.58-3.75s-55.69 0-69.58 3.75c-7.66 2.06-13.7 8.14-15.75 15.85-3.72 13.98-3.72 43.15-3.72 43.15s0 29.17 3.72 43.15c2.05 7.71 8.08 13.79 15.75 15.85 13.89 3.75 69.58 3.75 69.58 3.75s55.69 0 69.58-3.75c7.66-2.06 13.7-8.14 15.75-15.85 3.72-13.98 3.72-43.15 3.72-43.15s0-29.17-3.72-43.15zm-103.54 69.62v-52.96l46.55 26.48-46.55 26.48z" fill="#fff"/>
</svg>