<svg width="251" height="84" xmlns="http://www.w3.org/2000/svg">
  <g fill="#000105" fill-rule="evenodd">
    <path d="M250.849 74.111V32.859l-45.546 4.924v30.49s.036.618-.926.618h-3.63c-.962 0-.926-.618-.926-.618V38.377l-1.922.208v29.688s.036.618-.926.618h-3.63c-.962 0-.926-.618-.926-.618V39.177l-26.598 2.876v9.764c.234-.006.69-.084 1.122-.546.612-.656 1.78-1.838 3.062-1.838 1.28 0 4.84 1.004 4.84 9.156 0 8.152-3.346 10.572-4.84 10.572-.82 0-1.702.044-2.67-.818-1.104-.982-1.06-1.096-1.346-1.054-.062.01-.168.064-.168.184v.8s.036.618-.924.618h-3.632c-.96 0-.924-.618-.924-.618V42.645l-60.574 6.55v24.916h151.084zm-107.448-19.1s.018.482-.354.482c-.322 0-4.228-.284-4.23 2.56v10.22s.036.616-.926.616h-3.63c-.96 0-.926-.616-.926-.616V50.389c0-.54.712-.484.712-.484h4.058s.712-.056.712.484v1.436a1.66 1.66 0 0 0 1.132-.568c.57-.642 1.602-1.816 3.098-1.816.306 0 .354.178.354.462v5.108zm15.292 5.822c-.178.598-1.102.552-1.102.552h-7.476c0 1.514.076 3.204 1.826 3.204 1.246 0 1.488-.836 1.594-1.228.13-.498.834-.428.834-.428h3.204c.694 0 .658.534.658.534s.356 5.91-6.514 5.91-7.244-8.544-7.244-8.544-1.352-11.336 7.154-11.336c8.58 0 7.266 10.672 7.066 11.336zm31.766 0c-.18.598-1.104.552-1.104.552h-7.476c0 1.514.076 3.204 1.826 3.204 1.246 0 1.488-.836 1.596-1.228.128-.498.832-.428.832-.428h3.204c.694 0 .658.534.658.534s.356 5.91-6.514 5.91-7.244-8.544-7.244-8.544-1.352-11.336 7.156-11.336c8.578 0 7.264 10.672 7.066 11.336zm17.4-10.442c0-.542.712-.484.712-.484h4.058s.712-.058.712.484v17.882s.036.618-.926.618h-3.63c-.96 0-.926-.618-.926-.618V50.391zm6.034-5.734c0 1.778-1.474 3.22-3.292 3.22-1.818 0-3.294-1.442-3.294-3.22 0-1.78 1.476-3.222 3.294-3.222s3.292 1.442 3.292 3.222zm16.03 14.802v.002c0 9.488-5.8 9.74-6.804 9.74-.122 0-.284.006-.462.006-.192 0-.392-.014-.512-.014-1.004 0-6.792-.86-6.792-9.732v-.006c.002-10.208 6.464-9.96 7.132-9.96.046 0 .1.004.152.008.054-.004.108-.008.152-.008.67 0 7.13-.248 7.134 9.96v.004zm14.844-4.89v13.704s.036.618-.926.618h-3.334c-.962 0-.926-.618-.926-.618V56.527s.1-1.282-.854-1.282c-1.172 0-1.576.876-1.578 1.272v11.756s.036.618-.926.618h-3.63c-.962 0-.926-.618-.926-.618V50.391c0-.542.712-.484.712-.484h4.058s.712-.058.712.484v1.432c.424-.016.758-.212.868-.294.342-.256 1.638-2.086 3.368-2.086 3.772 0 3.382 5.126 3.382 5.126zm-20.64 4.632c0-.098.014-1.39-.094-2.72-.112-1.382-1.374-1.308-1.374-1.308s-1.262-.074-1.374 1.308c-.108 1.33-.094 2.622-.094 2.72 0 .096-.014 1.52.094 2.85.064.8.514 1.112.882 1.232.252.11.47.096.47.096s.162.01.364-.056c.384-.082.958-.358 1.032-1.272.108-1.33.094-2.754.094-2.85zm-38.698-2.222s.028-2.482-1.724-2.482c-1.7 0-1.842 2.054-1.842 2.474 0 .42.818.392.818.392h1.922c.926 0 .826-.384.826-.384zm-31.764 0s.028-2.482-1.724-2.482c-1.702 0-1.844 2.054-1.844 2.474 0 .42.82.392.82.392h1.922c.924 0 .826-.384.826-.384zm12.066 2.222c0 .096-.014 1.388.094 2.718.112 1.384 1.374 1.308 1.374 1.308s1.262.076 1.374-1.308c.108-1.33.096-2.622.094-2.718.002-.098.014-1.39-.094-2.72-.112-1.382-1.374-1.308-1.374-1.308s-1.262-.074-1.374 1.308c-.108 1.33-.094 2.622-.094 2.72zM238.588 30.012V5.096H87.504v41.25L193.472 34.89c-2.018-.548-5.564-2.554-5.564-9.52v-.008c.002-10.208 6.464-9.96 7.134-9.96.044 0 .098.004.153.008.051-.004.105-.008.151-.008.668 0 7.13-.248 7.132 9.96v.008c0 5.562-1.991 7.938-3.844 8.962l5.353-.578V16.356c0-.542.711-.484.711-.484h4.058s.712-.058.712.484v1.432c.422-.016.758-.212.868-.294.342-.256 1.638-2.086 3.366-2.086 3.774 0 3.382 5.126 3.382 5.126v11.802l21.504-2.324zm-57.782-13.656c0-.542.712-.484.712-.484h4.058s.712-.058.712.484V34.24s.036.616-.926.616h-3.629c-.96 0-.927-.616-.927-.616V16.356zm-44.066 0c0-.542.712-.484.712-.484h4.058s.71-.058.71.484V34.24s.036.616-.924.616h-3.632c-.96 0-.924-.616-.924-.616V16.356zM108.908 26.8c-.18.598-1.104.552-1.104.552h-7.476c0 1.512.076 3.202 1.828 3.202 1.244 0 1.486-.836 1.594-1.228.128-.498.832-.426.832-.426h3.204c.694 0 .658.534.658.534s.356 5.908-6.514 5.908-7.244-8.542-7.244-8.542-1.352-11.338 7.156-11.338c8.578 0 7.266 10.672 7.066 11.338zm15.676 8.056h-4.934s-.526 0-.834-.546c-.28-.5-1.744-3.666-1.744-3.666s-.142-.284-.426-.284c-.286 0-.428.284-.428.284s-1.462 3.166-1.744 3.666c-.306.546-.832.546-.832.546h-4.934c-.534 0 0-.866 0-.866s4.806-8.044 4.982-8.418c.18-.374 0-.766 0-.766s-4.324-7.724-4.698-8.382c-.374-.658.66-.552.66-.552h4.43c.784 0 .962.498.962.498s1.104 2.564 1.282 2.954c.192.448.32.392.32.392s.114.056.32-.392c.178-.39 1.282-2.954 1.282-2.954s.178-.498.96-.498h4.432s1.032-.106.658.552-4.698 8.382-4.698 8.382-.178.392 0 .766 4.984 8.418 4.984 8.418.534.866 0 .866zM134.7 19.944s.028.59-.584.59h-1.204V34.24s.036.616-.924.616h-3.632c-.96 0-.924-.616-.924-.616V20.534h-1.204c-.612 0-.584-.59-.584-.59v-3.516c0-.556.542-.556.542-.556h1.246v-4.714c0-.54.71-.484.71-.484h4.058s.712-.056.712.484v4.714h1.246s.542 0 .542.556v3.516zm8.073-9.322c0 1.778-1.475 3.22-3.293 3.22s-3.292-1.442-3.292-3.22c0-1.78 1.474-3.222 3.292-3.222 1.818 0 3.293 1.442 3.293 3.222zm14.523 9.912V34.24s.036.616-.926.616h-3.334c-.96 0-.925-.616-.925-.616V22.492s.099-1.282-.855-1.282c-1.172 0-1.576.876-1.578 1.272V34.24s.036.616-.926.616h-3.63c-.962 0-.926-.616-.926-.616V16.356c0-.542.712-.484.712-.484h4.058s.712-.058.712.484v1.432a1.65 1.65 0 0 0 .868-.294c.342-.256 1.638-2.086 3.368-2.086 3.775 0 3.382 5.126 3.382 5.126zm11.532 12.544s.01.412-.17.84c-.576 1.112-2.673 1.218-3.21 1.218-1.003 0-6.795.44-6.799-9.768v-.006c.004-10.208 6.463-9.96 7.133-9.96.538 0 1.67.23 2.206.654.17.136.514.386.67.756.18.428.17.84.17.84v3.114c0 .588-.444.392-.444.392s-.748-.374-1.246-.374c-2.414 0-2.418 4.428-2.418 4.578v.006c0 .15.004 4.578 2.418 4.578.498 0 1.246-.374 1.246-.374s.444-.196.444.392v3.114zm10.695-13.134s.027.59-.584.59h-1.204V34.24s.035.616-.925.616h-3.632c-.96 0-.924-.616-.924-.616V20.534h-1.204c-.611 0-.584-.59-.584-.59v-3.516c0-.556.542-.556.542-.556h1.246v-4.714c0-.54.712-.484.712-.484h4.057s.712-.056.712.484v4.714h1.246s.542 0 .542.556v3.516zm7.317-9.322c0 1.778-1.474 3.22-3.292 3.22-1.817 0-3.294-1.442-3.294-3.22 0-1.78 1.477-3.222 3.294-3.222 1.818 0 3.292 1.442 3.292 3.222zm-82.962 12.322s.028-2.48-1.722-2.48c-1.702 0-1.846 2.054-1.846 2.474 0 .42.82.392.82.392h1.922c.926 0 .826-.386.826-.386zm89.868 2.164c0 .096-.013 1.52.094 2.85.066.8.515 1.112.882 1.232.252.11.473.096.473.096s.16.01.363-.056c.383-.082.956-.358 1.03-1.272.108-1.33.094-2.754.094-2.85 0-.096.014-1.39-.094-2.72-.112-1.382-1.374-1.308-1.374-1.308s-1.262-.074-1.374 1.308c-.107 1.33-.094 2.624-.094 2.72zm15.722-2.626V33.16l2.433-.262V22.492s.099-1.282-.855-1.282c-1.174 0-1.578.876-1.578 1.272zM83.53 42.234C83.53 19.168 64.83.468 41.764.468S-.002 19.168 0 42.234C-.002 65.3 18.698 84 41.764 84 64.832 84 83.53 65.3 83.53 42.234zM41.764 77.568c-8.85 0-16.932-3.262-23.132-8.638h46.266c-6.2 5.376-14.284 8.638-23.134 8.638zm0-30.16l13.1 15.068H28.666l13.098-15.068zm0-10.356l-13.092-15.06h26.184l-13.092 15.06zm-25.63-19.126L37.262 42.23 16.13 66.538c-6.006-6.334-9.7-14.884-9.7-24.304 0-9.42 3.694-17.974 9.704-24.308zM41.764 6.9c8.85 0 16.934 3.26 23.134 8.636h-4.43v.002H23.062v-.002h-4.43C24.832 10.16 32.914 6.9 41.764 6.9zm35.334 35.334c0 9.42-3.692 17.97-9.7 24.304L46.266 42.23l21.13-24.304c6.01 6.334 9.702 14.888 9.702 24.308z"/>
  </g>
</svg>