<?xml version="1.0" encoding="UTF-8" standalone="no"?>
<svg
   xmlns:dc="http://purl.org/dc/elements/1.1/"
   xmlns:cc="http://creativecommons.org/ns#"
   xmlns:rdf="http://www.w3.org/1999/02/22-rdf-syntax-ns#"
   xmlns:svg="http://www.w3.org/2000/svg"
   xmlns="http://www.w3.org/2000/svg"
   id="svg6"
   version="1.1"
   height="84"
   width="253">
  <metadata
     id="metadata12">
    <rdf:RDF>
      <cc:Work
         rdf:about="">
        <dc:format>image/svg+xml</dc:format>
        <dc:type
           rdf:resource="http://purl.org/dc/dcmitype/StillImage" />
        <dc:title></dc:title>
      </cc:Work>
    </rdf:RDF>
  </metadata>
  <defs
     id="defs10" />
  <g
     style="fill:#000105;fill-rule:evenodd"
     transform="matrix(1.0056267,0,0,1.0056026,0,-0.47062204)"
     id="g4">
    <path
       id="path2"
       d="M 83.53,42.234 C 83.53,19.168 64.83,0.468 41.764,0.468 18.698,0.468 -0.002,19.168 0,42.234 -0.002,65.3 18.698,84 41.764,84 64.832,84 83.53,65.3 83.53,42.234 Z M 41.764,77.568 c -8.85,0 -16.932,-3.262 -23.132,-8.638 h 46.266 c -6.2,5.376 -14.284,8.638 -23.134,8.638 z m 0,-30.16 13.1,15.068 H 28.666 Z m 0,-10.356 -13.092,-15.06 H 54.856 Z M 16.134,17.926 37.262,42.23 16.13,66.538 c -6.006,-6.334 -9.7,-14.884 -9.7,-24.304 0,-9.42 3.694,-17.974 9.704,-24.308 z M 41.764,6.9 c 8.85,0 16.934,3.26 23.134,8.636 h -4.43 v 0.002 H 23.062 v -0.002 h -4.43 C 24.832,10.16 32.914,6.9 41.764,6.9 Z m 35.334,35.334 c 0,9.42 -3.692,17.97 -9.7,24.304 L 46.266,42.23 67.396,17.926 c 6.01,6.334 9.702,14.888 9.702,24.308 z" />
  </g>
  <g
     style="fill:#000105;fill-rule:evenodd"
     transform="matrix(0.99976918,0,0,0.99976991,2.2082919,0.40618266)"
     id="g833">
    <path
       id="path831"
       transform="translate(0,-100)"
       d="m 87.503906,107.0957 v 41.25 L 193.47266,136.89062 c -2.018,-0.548 -5.56446,-2.55353 -5.56446,-9.51953 v -0.008 c 0.002,-10.208 6.46477,-9.96094 7.13477,-9.96094 0.044,0 0.0973,0.004 0.15234,0.008 0.051,-0.004 0.10439,-0.008 0.15039,-0.008 0.668,0 7.13082,-0.24706 7.13282,9.96094 v 0.008 c 0,5.562 -1.99075,7.93694 -3.84375,8.96094 l 5.35156,-0.57812 v -17.39649 c 0,-0.542 0.71094,-0.48437 0.71094,-0.48437 h 4.05859 c 0,0 0.71289,-0.0576 0.71289,0.48437 v 1.43164 c 0.422,-0.016 0.75719,-0.21292 0.86719,-0.29492 0.342,-0.256 1.63723,-2.08594 3.36523,-2.08594 3.774,0 3.38281,5.12696 3.38281,5.12696 v 11.80078 l 21.50391,-2.32422 V 107.0957 Z m 51.976564,2.30469 c 1.818,0 3.29297,1.44266 3.29297,3.22266 0,1.778 -1.47497,3.21875 -3.29297,3.21875 -1.818,0 -3.29297,-1.44075 -3.29297,-3.21875 0,-1.78 1.47497,-3.22266 3.29297,-3.22266 z m 44.06836,0 c 1.818,0 3.29101,1.44266 3.29101,3.22266 0,1.778 -1.47301,3.21875 -3.29101,3.21875 -1.817,0 -3.29492,-1.44075 -3.29492,-3.21875 0,-1.78 1.47792,-3.22266 3.29492,-3.22266 z m -55.51758,3.27344 c 0.0666,-0.003 0.11133,0 0.11133,0 h 4.05664 c 0,0 0.71289,-0.0556 0.71289,0.48437 v 4.71485 h 1.24609 c 0,0 0.54102,-0.001 0.54102,0.55468 v 3.51758 c 0,0 0.028,0.58985 -0.58399,0.58985 h -1.20312 v 13.70507 c 0,0 0.0362,0.61719 -0.92383,0.61719 h -3.63281 c -0.96,0 -0.92383,-0.61719 -0.92383,-0.61719 v -13.70507 h -1.20312 c -0.612,0 -0.58399,-0.58985 -0.58399,-0.58985 v -3.51758 c 0,-0.556 0.54102,-0.55468 0.54102,-0.55468 h 1.24609 v -4.71485 c 0,-0.405 0.39992,-0.47481 0.59961,-0.48437 z m 44.82422,0 c 0.0668,-0.003 0.11133,0 0.11133,0 h 4.05664 c 0,0 0.71094,-0.0556 0.71094,0.48437 v 4.71485 h 1.24609 c 0,0 0.54297,-0.001 0.54297,0.55468 v 3.51758 c 0,0 0.027,0.5901 -0.58399,0.58985 h -1.20507 v 13.70507 c 0,0 0.0362,0.61719 -0.92383,0.61719 h -3.63282 c -0.96,0 -0.92382,-0.61719 -0.92382,-0.61719 v -13.70507 h -1.20313 c -0.611,0 -0.58398,-0.58985 -0.58398,-0.58985 v -3.51758 c 0,-0.556 0.54101,-0.55468 0.54101,-0.55468 h 1.2461 v -4.71485 c 0,-0.405 0.40131,-0.47481 0.60156,-0.48437 z m -7.07422,4.72851 c 0.538,0 1.67103,0.2303 2.20703,0.6543 0.17,0.136 0.51392,0.38586 0.66992,0.75586 0.18,0.428 0.16992,0.83984 0.16992,0.83984 v 3.11328 c 0,0.58801 -0.44335,0.39258 -0.44335,0.39258 0,0 -0.7481,-0.37304 -1.2461,-0.37304 -2.414,0 -2.41797,4.42812 -2.41797,4.57812 v 0.006 c 0,0.15 0.004,4.57813 2.41797,4.57813 0.498,0 1.2461,-0.375 1.2461,-0.375 0,0 0.44335,-0.19543 0.44335,0.39257 v 3.11328 c 0,0 0.0101,0.41185 -0.16992,0.83985 -0.576,1.112 -2.67393,1.21875 -3.21093,1.21875 -1.003,0 -6.79483,0.44042 -6.79883,-9.76758 v -0.006 c 0.004,-10.208 6.46281,-9.96094 7.13281,-9.96094 z m -11.86719,0.006 c 3.775,0 3.38282,5.12696 3.38282,5.12696 v 13.70507 c 0,0 0.0343,0.61719 -0.92774,0.61719 h -3.33398 c -0.96,0 -0.92383,-0.61719 -0.92383,-0.61719 v -11.74804 c 0,0 0.0985,-1.28125 -0.85547,-1.28125 -1.172,0 -1.57613,0.87548 -1.57813,1.27148 v 11.75781 c 0,0 0.0362,0.61719 -0.92578,0.61719 h -3.63086 c -0.962,0 -0.92578,-0.61719 -0.92578,-0.61719 v -17.88281 c 0,-0.542 0.71289,-0.48437 0.71289,-0.48437 h 4.0586 c 0,0 0.71093,-0.0576 0.71093,0.48437 v 1.43164 c 0.31129,-0.0141 0.61338,-0.11692 0.86915,-0.29492 0.342,-0.256 1.63718,-2.08594 3.36718,-2.08594 z m -52.07226,0.0547 c 8.578,0 7.2664,10.67189 7.0664,11.33789 -0.18,0.598 -1.10351,0.55078 -1.10351,0.55078 h -7.47657 c 0,1.512 0.0761,3.20313 1.82813,3.20313 1.244,0 1.48575,-0.83652 1.59375,-1.22852 0.128,-0.498 0.83203,-0.42578 0.83203,-0.42578 h 3.20313 c 0.694,0 0.6582,0.5332 0.6582,0.5332 0,0 0.35633,5.90821 -6.51367,5.90821 -6.870003,0 -7.244143,-8.54102 -7.244143,-8.54102 0,0 -1.35175,-11.33789 7.156253,-11.33789 z m 7.65429,0.4043 c 0.0911,-3.5e-4 0.15625,0.006 0.15625,0.006 h 4.42969 c 0.784,0 0.96289,0.49804 0.96289,0.49804 0,0 1.10325,2.56313 1.28125,2.95313 0.192,0.448 0.32031,0.39258 0.32031,0.39258 0,0 0.11432,0.0554 0.32032,-0.39258 0.178,-0.39 1.28125,-2.95313 1.28125,-2.95313 0,0 0.17698,-0.49804 0.95898,-0.49804 h 4.43359 c 0,0 1.03221,-0.10722 0.65821,0.55078 -0.374,0.658 -4.69922,8.38281 -4.69922,8.38281 0,0 -0.178,0.39163 0,0.76563 0.178,0.374 4.98437,8.41796 4.98437,8.41796 0,0 0.534,0.86719 0,0.86719 h -4.93359 c 0,0 -0.52598,-8.7e-4 -0.83398,-0.54687 -0.28,-0.5 -1.74414,-3.66602 -1.74414,-3.66602 0,0 -0.14179,-0.2832 -0.42579,-0.2832 -0.286,0 -0.42773,0.2832 -0.42773,0.2832 0,0 -1.46214,3.16602 -1.74414,3.66602 -0.306,0.546 -0.83203,0.54687 -0.83203,0.54687 h -4.93555 c -0.534,0 0,-0.86719 0,-0.86719 0,0 4.80642,-8.04396 4.98242,-8.41796 0.18,-0.374 0,-0.76563 0,-0.76563 0,0 -4.32326,-7.72481 -4.69726,-8.38281 -0.2805,-0.4935 0.23062,-0.55561 0.5039,-0.55664 z m 27.84375,0.004 c 0.0667,-0.003 0.11133,0.002 0.11133,0.002 h 4.0586 c 0,0 0.71093,-0.0576 0.71093,0.48437 v 17.88281 c 0,0 0.0362,0.61719 -0.92382,0.61719 h -3.63282 c -0.96,0 -0.92383,-0.61719 -0.92383,-0.61719 v -17.88281 c 0,-0.4065 0.39936,-0.47723 0.59961,-0.48633 z m 44.06641,0 c 0.0668,-0.003 0.11133,0.002 0.11133,0.002 h 4.05859 c 0,0 0.71094,-0.0576 0.71094,0.48437 v 17.88281 c 0,0 0.0362,0.61719 -0.92578,0.61719 h -3.62891 c -0.96,0 -0.92578,-0.61719 -0.92578,-0.61719 v -17.88281 c 0,-0.4065 0.39936,-0.47723 0.59961,-0.48633 z m -79.25,4.59375 c -1.702,0 -1.8457,2.05461 -1.8457,2.47461 0,0.42 0.82031,0.39063 0.82031,0.39063 h 1.92187 c 0.926,0 0.82618,-0.38477 0.82618,-0.38477 0,0 0.0273,-2.48047 -1.72266,-2.48047 z m 93.05859,0.61524 c 0,0 -1.263,-0.0734 -1.375,1.30859 -0.107,1.33 -0.0937,2.6247 -0.0937,2.72071 0,0.096 -0.0132,1.5196 0.0937,2.8496 0.066,0.8 0.51582,1.11243 0.88282,1.23243 0.252,0.11 0.47265,0.0957 0.47265,0.0957 0,0 0.16028,0.009 0.36328,-0.0566 0.383,-0.082 0.9553,-0.35749 1.0293,-1.27149 0.108,-1.33 0.0937,-2.75361 0.0937,-2.8496 0,-0.096 0.0143,-1.39071 -0.0937,-2.72071 -0.112,-1.382 -1.37305,-1.30859 -1.37305,-1.30859 z m 15.83204,0.13086 c -1.17401,0 -1.57813,0.87548 -1.57813,1.27148 v 10.67774 l 2.43164,-0.26172 v -10.40625 c 0,0 0.10049,-1.28125 -0.85351,-1.28125 z m 39.80273,11.64844 -45.54688,4.92382 v 30.49024 c 0,0 0.0362,0.61718 -0.92578,0.61718 h -3.63086 c -0.962,0 -0.92578,-0.61718 -0.92578,-0.61718 V 140.3772 l -1.92187,0.20899 v 29.6875 c 0,0 0.0362,0.61718 -0.92578,0.61718 h -3.62891 c -0.962,0 -0.92578,-0.61718 -0.92578,-0.61718 v -29.09571 l -26.59961,2.875 v 9.76563 c 0.234,-0.006 0.69105,-0.0849 1.12305,-0.54688 0.612,-0.656 1.7805,-1.83789 3.0625,-1.83789 1.28,0 4.83984,1.00425 4.83984,9.15625 0,8.152 -3.34584,10.57227 -4.83984,10.57227 -0.82,0 -1.70388,0.0436 -2.67188,-0.81836 -1.104,-0.982 -1.0597,-1.09669 -1.3457,-1.05469 -0.062,0.01 -0.16797,0.0636 -0.16797,0.1836 v 0.80078 c 0,0 0.0362,0.61718 -0.92383,0.61718 h -3.63086 c -0.96,0 -0.92383,-0.61718 -0.92383,-0.61718 v -25.62891 l -60.574215,6.55078 v 24.91602 H 250.84961 Z m -40.24805,8.57617 c 1.818,0 3.29102,1.44265 3.29102,3.22265 0,1.778 -1.47302,3.21875 -3.29102,3.21875 -1.818,0 -3.29492,-1.44075 -3.29492,-3.21875 0,-1.78 1.47692,-3.22265 3.29492,-3.22265 z m -67.55468,8.00586 c 0.306,0 0.35351,0.17889 0.35351,0.46289 v 5.10742 c 0,0 0.0185,0.48242 -0.35351,0.48242 -0.32201,0 -4.22847,-0.28541 -4.23047,2.55859 v 10.22071 c 0,0 0.0362,0.61523 -0.92579,0.61523 h -3.6289 c -0.96,0 -0.92578,-0.61523 -0.92578,-0.61523 v -17.88477 c 0,-0.54 0.71094,-0.48242 0.71094,-0.48242 h 4.05859 c 0,0 0.71094,-0.0576 0.71094,0.48242 v 1.4375 c 0.43757,-0.0323 0.84537,-0.23686 1.13281,-0.56836 0.57,-0.642 1.60165,-1.8164 3.09766,-1.8164 z m 98.33789,0.002 c 3.772,0 3.38281,5.12695 3.38281,5.12695 v 13.70313 c 0,0 0.0362,0.61718 -0.92578,0.61718 h -3.33399 c -0.962,0 -0.92773,-0.61718 -0.92773,-0.61718 v -11.7461 c 0,0 0.10048,-1.28125 -0.85352,-1.28125 -1.172,0 -1.57612,0.87549 -1.57812,1.27149 v 11.75586 c 0,0 0.0362,0.61718 -0.92578,0.61718 h -3.62891 c -0.962,0 -0.92578,-0.61718 -0.92578,-0.61718 v -17.88282 c 0,-0.542 0.71094,-0.48242 0.71094,-0.48242 h 4.05859 c 0,0 0.71094,-0.0596 0.71094,0.48242 v 1.4336 c 0.424,-0.016 0.75914,-0.21292 0.86914,-0.29492 0.342,-0.256 1.63719,-2.08594 3.36719,-2.08594 z m -18.90039,0.0527 c 0.046,0 0.10034,0.004 0.15234,0.008 0.054,-0.004 0.10834,-0.008 0.15234,-0.008 0.67,0 7.13077,-0.24901 7.13477,9.95899 v 0.004 0.002 c 0,9.488 -5.80069,9.74023 -6.80469,9.74023 -0.122,0 -0.28489,0.006 -0.46289,0.006 -0.192,0 -0.39172,-0.0137 -0.51172,-0.0137 -1.004,0 -6.79101,-0.86042 -6.79101,-9.73242 v -0.006 c 0.002,-10.208 6.46285,-9.95899 7.13086,-9.95899 z m -70.85743,0.002 c 8.58,0 7.26641,10.67193 7.06641,11.33593 -0.178,0.598 -1.10156,0.55079 -1.10156,0.55079 h -7.47657 c 0,1.514 0.0762,3.20507 1.82618,3.20507 1.246,0 1.48775,-0.83651 1.59375,-1.22851 0.13,-0.498 0.83398,-0.42774 0.83398,-0.42774 h 3.20313 c 0.694,0 0.6582,0.53321 0.6582,0.53321 0,0 0.35633,5.91015 -6.51367,5.91015 -6.87,0 -7.24414,-8.54297 -7.24414,-8.54297 0,0 -1.35171,-11.33593 7.15429,-11.33593 z m 31.76563,0 c 8.578,0 7.2644,10.67193 7.0664,11.33593 -0.18,0.598 -1.10351,0.55079 -1.10351,0.55079 h -7.47656 c 0,1.514 0.0762,3.20507 1.82617,3.20507 1.246,0 1.4877,-0.83651 1.5957,-1.22851 0.128,-0.498 0.83203,-0.42774 0.83203,-0.42774 h 3.20508 c 0.694,0 0.65625,0.53321 0.65625,0.53321 0,0 0.35633,5.91015 -6.51367,5.91015 -6.87,0 -7.24414,-8.54297 -7.24414,-8.54297 0,0 -1.35175,-11.33593 7.15625,-11.33593 z m 25.0664,0.4082 c 0.0668,-0.003 0.11133,0.002 0.11133,0.002 h 4.0586 c 0,0 0.71289,-0.0596 0.71289,0.48242 v 17.88282 c 0,0 0.0343,0.61718 -0.92774,0.61718 h -3.6289 c -0.96,0 -0.92578,-0.61718 -0.92578,-0.61718 v -17.88282 c 0,-0.40649 0.39935,-0.47528 0.5996,-0.48437 z m -56.51757,4.5918 c -1.702,0 -1.84375,2.05265 -1.84375,2.47265 0,0.42 0.82031,0.39258 0.82031,0.39258 h 1.92187 c 0.924,0 0.82422,-0.38281 0.82422,-0.38281 0,0 0.0293,-2.48242 -1.72265,-2.48242 z m 31.76367,0 c -1.7,0 -1.8418,2.05265 -1.8418,2.47265 0,0.42 0.81836,0.39258 0.81836,0.39258 h 1.92188 c 0.926,0 0.82617,-0.38281 0.82617,-0.38281 0,0 0.0274,-2.48242 -1.72461,-2.48242 z m -16.50586,0.67578 c 0,0 -1.263,-0.0734 -1.375,1.30859 -0.108,1.33 -0.0937,2.62075 -0.0937,2.71875 0,0.096 -0.0143,1.38875 0.0937,2.71875 0.112,1.384 1.375,1.30664 1.375,1.30664 0,0 1.26105,0.0774 1.37305,-1.30664 0.108,-1.33 0.0977,-2.62275 0.0957,-2.71875 0.002,-0.098 0.0123,-1.38875 -0.0957,-2.71875 -0.112,-1.382 -1.37305,-1.30859 -1.37305,-1.30859 z m 55.45898,0 c 0,0 -1.26104,-0.0734 -1.37304,1.30859 -0.108,1.33 -0.0937,2.62075 -0.0937,2.71875 0,0.096 -0.0143,1.51961 0.0937,2.84961 0.064,0.8 0.51481,1.11242 0.88281,1.23242 0.252,0.11 0.46875,0.0957 0.46875,0.0957 0,0 0.16323,0.0113 0.36523,-0.0547 0.384,-0.082 0.95725,-0.35944 1.03125,-1.27344 0.108,-1.33 0.0937,-2.75361 0.0937,-2.84961 0,-0.098 0.0143,-1.38875 -0.0937,-2.71875 -0.112,-1.382 -1.375,-1.30859 -1.375,-1.30859 z" />
  </g>
</svg>
